<?xml version="1.0" encoding="utf-8"?>
<!-- Generator: Adobe Illustrator 17.1.0, SVG Export Plug-In . SVG Version: 6.00 Build 0)  -->
<!DOCTYPE svg PUBLIC "-//W3C//DTD SVG 1.1//EN" "http://www.w3.org/Graphics/SVG/1.1/DTD/svg11.dtd">
<svg version="1.1" id="Layer_1" xmlns="http://www.w3.org/2000/svg" xmlns:xlink="http://www.w3.org/1999/xlink" x="0px" y="0px"
	 viewBox="0 0 283.5 283.5" enable-background="new 0 0 283.5 283.5" xml:space="preserve">
<g>
	<rect width="283.5" height="283.5"/>
</g>
<g>
	<path fill="#808285" d="M114.9,131c0,15.7,0.9,18,8.8,18.6l5.6,0.4c0.9,0.9,0.6,3.2-0.3,3.7c-9.1-0.3-14.1-0.4-19.9-0.4
		c-6.2,0-11.4,0.1-19.2,0.4c-0.9-0.4-1.2-2.8-0.3-3.7l4.5-0.4c8.5-0.9,8.8-2.9,8.8-18.6v-7.5c0-8.1-0.4-10-4.7-18.2L80.9,71.6
		c-5-9.7-7.2-10.4-11.6-11.1l-4.1-0.7c-0.9-1-0.7-3.1,0.3-3.7c4.7,0.3,10,0.4,17,0.4c6.7,0,12-0.1,15.7-0.4c1.3,0.4,1.3,2.8,0.4,3.7
		L96.8,60c-5.1,0.7-6.2,1.5-6.2,2.6c0,1.5,3.8,9.8,4.5,11.3c5.4,10.8,10.8,22.4,16.6,32.5c4.5-7.8,9.4-16.3,13.8-24.8
		c4.1-7.6,9.5-17.6,9.5-19.4c0-0.9-2.6-1.9-6.2-2.3l-2.6-0.3c-1-1-0.9-3.1,0.3-3.7c5.3,0.3,9.5,0.4,14.1,0.4c4.5,0,8.6-0.1,13.6-0.4
		c1.2,0.7,1.3,2.8,0.3,3.7l-4.1,0.7c-7.6,1.3-12,10.6-19.4,23.2l-9.2,16c-6.5,11.1-6.9,12.5-6.9,23.8V131z"/>
	<path fill="#808285" d="M180.6,131.3c0,15.4,0.3,17.3,9.7,18.3l4,0.4c0.9,0.7,0.6,3.2-0.3,3.7c-8.4-0.3-13.2-0.4-19.1-0.4
		c-6.2,0-11.4,0.1-17.9,0.4c-0.9-0.4-1.2-2.8-0.3-3.7l3.1-0.4c8.5-1.2,8.8-2.9,8.8-18.3V77.2c0-12.5-0.3-15-6.9-15.7l-5.3-0.6
		c-1-0.9-0.9-3.1,0.3-3.7c7.8-1,16.9-1.2,29-1.2c12.2,0,21.3,1.6,28.1,5.9c6.7,4.3,11.7,11.9,11.7,22c0,13.5-8.4,20.2-14.7,23.3
		c-6.5,3.1-14.2,4.4-20.2,4.4c-1-0.4-1-2.6-0.1-2.9c15.8-2.9,21.6-11.9,21.6-24.6c0-14.2-8.4-23.5-23.6-23.5c-7.8,0-7.9,0.6-7.9,5.3
		V131.3z"/>
</g>
<g>
	<path fill="#FFFFFF" d="M65.4,193.3c1,1.2,1.7,2.3,2.1,3.4c0.4,1.1,0.6,2.8,0.6,5.3v13.8c0,1.2,0.2,2,0.7,2.5
		c0.4,0.5,1.3,0.8,2.4,0.9c1.2,0.1,2.2,0.6,2.9,1.4c0.8,0.8,1.1,1.8,1.1,3c0,1.2-0.4,2.3-1.3,3.1c-0.9,0.8-2,1.3-3.3,1.3
		c-1.9,0-3.7-0.5-5.5-1.5c-1.8-1-3.3-2.6-4.6-4.9c-0.8-1.5-1.2-3.2-1.2-5.1v-15.3c0-1.2-0.2-2-0.6-2.5c-0.4-0.5-1.2-0.8-2.5-0.9
		c-1.3-0.2-2.3-0.6-3-1.4c-0.7-0.8-1-1.8-1-3c0-1.3,0.3-2.3,1-3c0.7-0.8,1.7-1.2,3-1.4c1.3-0.2,2.1-0.4,2.4-0.8
		c0.5-0.6,0.7-1.4,0.7-2.6V171c0-3.1,1.1-5.8,3.4-8.1c2.3-2.3,4.9-3.4,7.8-3.4c1.4,0,2.5,0.4,3.3,1.3c0.9,0.8,1.3,1.9,1.3,3.1
		c0,1.2-0.4,2.1-1.1,3c-0.8,0.8-1.8,1.3-3,1.4c-1.2,0.1-2,0.4-2.3,0.8c-0.5,0.6-0.8,1.5-0.8,2.6v13.8c0,1.9-0.2,3.5-0.6,4.5
		C67.1,191.1,66.4,192.2,65.4,193.3z"/>
	<path fill="#FFFFFF" d="M129.3,165.3c0.5-0.7,1.1-1.3,1.8-1.7c0.6-0.4,1.3-0.6,2.1-0.6c1.3,0,2.3,0.4,3.1,1.3
		c0.8,0.9,1.2,2.4,1.2,4.4v7.4c0,2.1-0.4,3.6-1.2,4.5c-0.8,0.9-1.8,1.3-3.1,1.3c-1.2,0-2.1-0.3-2.8-1c-0.7-0.6-1.2-1.9-1.6-3.6
		c-0.2-1.2-0.6-2.1-1.2-2.8c-1.2-1.3-2.8-2.3-4.9-3c-2.1-0.8-4.2-1.1-6.2-1.1c-2.6,0-5,0.6-7.2,1.7c-2.2,1.1-4.1,3-5.8,5.5
		c-1.7,2.5-2.5,5.6-2.5,9.1v5.6c0,4.2,1.5,7.7,4.6,10.5c3,2.8,7.3,4.2,12.6,4.2c3.2,0,5.9-0.4,8.2-1.3c1.3-0.5,2.7-1.5,4.2-3
		c0.9-0.9,1.6-1.5,2.1-1.8c0.5-0.3,1.1-0.4,1.7-0.4c1.2,0,2.2,0.4,3,1.3c0.9,0.9,1.3,1.9,1.3,3.1c0,1.2-0.6,2.5-1.8,3.8
		c-1.7,2-3.9,3.5-6.7,4.7c-3.6,1.5-7.7,2.3-12.1,2.3c-5.1,0-9.8-1.1-13.9-3.2c-3.3-1.7-6.2-4.4-8.5-8c-2.3-3.7-3.5-7.6-3.5-12v-5.9
		c0-4.5,1.1-8.7,3.2-12.6c2.1-3.9,5-6.9,8.7-9c3.7-2.1,7.7-3.2,11.9-3.2c2.5,0,4.9,0.3,7.1,0.9C125.4,163.2,127.4,164.1,129.3,165.3
		z"/>
	<path fill="#FFFFFF" d="M167.7,201.7l12.6-30h-2c-2.1,0-3.6-0.4-4.5-1.2c-0.9-0.8-1.3-1.9-1.3-3.2c0-1.3,0.4-2.4,1.3-3.2
		c0.9-0.8,2.4-1.2,4.5-1.2l11.7,0c2.1,0,3.6,0.4,4.5,1.2c0.9,0.8,1.3,1.8,1.3,3.1c0,1.6-0.7,2.8-2,3.7c-0.7,0.5-2,0.7-4,0.7
		l-17.8,42.7h-8.3l-17.8-42.7c-2,0-3.4-0.2-4-0.7c-1.4-0.9-2-2.1-2-3.7c0-1.3,0.4-2.4,1.3-3.2c0.9-0.8,2.4-1.2,4.5-1.2l11.7,0
		c2.1,0,3.5,0.4,4.4,1.2c0.9,0.8,1.3,1.8,1.3,3.1c0,1.3-0.4,2.4-1.3,3.2s-2.4,1.2-4.4,1.2h-2L167.7,201.7z"/>
	<path fill="#FFFFFF" d="M217.9,193.3c-1-1.2-1.7-2.3-2.1-3.4c-0.4-1.1-0.6-2.6-0.6-4.5v-13.8c0-1.2-0.2-2-0.7-2.5
		c-0.4-0.5-1.3-0.8-2.4-0.9c-1.2-0.1-2.2-0.6-2.9-1.4c-0.8-0.8-1.1-1.8-1.1-3c0-1.2,0.4-2.3,1.3-3.1c0.9-0.8,2-1.3,3.3-1.3
		c1.9,0,3.7,0.5,5.5,1.5c1.8,1,3.3,2.6,4.6,4.9c0.8,1.5,1.2,3.2,1.2,5.1v14.5c0,1.2,0.2,2.1,0.6,2.5c0.4,0.5,1.2,0.8,2.5,0.9
		c1.3,0.1,2.3,0.6,3,1.4c0.7,0.8,1,1.8,1,3c0,1.2-0.3,2.2-1,3s-1.7,1.2-3,1.4c-1.3,0.2-2.1,0.4-2.4,0.8c-0.5,0.6-0.7,1.4-0.7,2.6
		v15.3c0,3.1-1.1,5.8-3.4,8.1c-2.3,2.3-4.9,3.4-7.8,3.4c-1.4,0-2.5-0.4-3.3-1.3c-0.9-0.8-1.3-1.9-1.3-3.1c0-1.2,0.4-2.1,1.1-3
		c0.8-0.8,1.8-1.3,3-1.4c1.2-0.1,2-0.4,2.3-0.8c0.5-0.6,0.8-1.5,0.8-2.6V202c0-2.4,0.2-4.2,0.5-5.3
		C216.1,195.7,216.8,194.5,217.9,193.3z"/>
</g>
</svg>
